<svg xmlns="http://www.w3.org/2000/svg" viewBox="0 0 200 200">
<rect x="34" y="26" width="132" height="150" rx="12" fill="#2FAE7C"/>
<rect x="42" y="30" width="124" height="142" rx="10" fill="#FDFAF4"/>
<rect x="46" y="34" width="120" height="134" rx="9" fill="#FDFAF4"/>
<rect x="34" y="26" width="132" height="150" rx="12" fill="#12A99A"/>
<rect x="34" y="26" width="24" height="150" rx="12" fill="#2FAE7C"/>
<rect x="34" y="26" width="132" height="150" rx="12" fill="none" stroke="#241D15" stroke-width="3.5"/>
<rect x="68" y="52" width="80" height="66" rx="10" fill="#FDFAF4" fill-opacity="0.85"/>
<circle cx="108" cy="78" r="17" fill="#FFC93C"/>
<path d="M 74,112 C 84,92 100,90 112,104 C 122,116 132,110 142,112 Z" fill="#2FAE7C"/>
<rect x="68" y="132" width="80" height="8" rx="4" fill="#FDFAF4" fill-opacity="0.7"/>
<rect x="80" y="148" width="56" height="8" rx="4" fill="#FDFAF4" fill-opacity="0.7"/>
<path d="M 132,26 L 132,60 L 142,50 L 152,60 L 152,26 Z" fill="#FFC93C"/>
<rect x="160" y="34" width="8" height="134" rx="4" fill="#FDFAF4"/>
</svg>
