<svg xmlns="http://www.w3.org/2000/svg" viewBox="0 0 200 200" width="200" height="200">
<rect x="46" y="150" width="20" height="30" rx="9" fill="#FF8AC5"/>
<rect x="76" y="150" width="20" height="30" rx="9" fill="#FF8AC5"/>
<rect x="108" y="150" width="20" height="30" rx="9" fill="#FF8AC5"/>
<rect x="138" y="150" width="20" height="30" rx="9" fill="#FF8AC5"/>
<path d="M 168,96 C 176,92 182,96 180,106 C 179,112 174,114 170,112" fill="none" stroke="#FF8AC5" stroke-width="7" stroke-linecap="round"/>
<ellipse cx="98" cy="118" rx="76" ry="52" fill="#FF8AC5"/>
<ellipse cx="42" cy="130" rx="26" ry="24" fill="#FF8AC5"/>
<path d="M 130,72 C 148,66 158,78 150,92 C 144,84 134,80 130,82 Z" fill="#FF8AC5"/>
<rect x="80" y="82" width="42" height="11" rx="5.5" fill="#241D15"/>
<circle cx="26" cy="126" r="6" fill="#241D15"/>
<circle cx="24.4" cy="124" r="2" fill="#FDFAF4"/>
<ellipse cx="20" cy="142" rx="12" ry="9" fill="#F4A340"/>
<circle cx="16" cy="142" r="2.5" fill="#241D15"/>
<circle cx="24" cy="142" r="2.5" fill="#241D15"/>
<path d="M 60,88 C 74,78 96,74 116,78" fill="none" stroke="#FDFAF4" stroke-width="7" stroke-linecap="round" stroke-opacity="0.5"/>
<circle cx="101" cy="40" r="20" fill="#FFC93C"/>
<circle cx="101" cy="40" r="20" fill="none" stroke="#241D15" stroke-width="3"/>
<circle cx="101" cy="40" r="12" fill="none" stroke="#F4A340" stroke-width="3"/>
</svg>
