<svg xmlns="http://www.w3.org/2000/svg" viewBox="0 0 200 200" width="200" height="200">
<rect x="72" y="148" width="56" height="18" rx="9" fill="#12A99A"/>
<circle cx="78" cy="172" r="13" fill="#241D15"/>
<circle cx="78" cy="172" r="6" fill="#B8C6D1"/>
<circle cx="122" cy="172" r="13" fill="#241D15"/>
<circle cx="122" cy="172" r="6" fill="#B8C6D1"/>
<rect x="90" y="88" width="20" height="14" rx="6" fill="#12A99A"/>
<rect x="64" y="96" width="72" height="58" rx="22" fill="#12A99A"/>
<rect x="78" y="108" width="44" height="34" rx="12" fill="#2FAE7C"/>
<circle cx="90" cy="120" r="4.5" fill="#FFC93C"/>
<rect x="100" y="116" width="16" height="8" rx="4" fill="#FDFAF4"/>
<path d="M 84,133 Q 92,127 100,133 Q 108,139 116,133" fill="none" stroke="#FDFAF4" stroke-width="3" stroke-linecap="round"/>
<path d="M 68,112 Q 54,122 50,136" fill="none" stroke="#12A99A" stroke-width="12" stroke-linecap="round" stroke-linejoin="round"/>
<circle cx="49" cy="140" r="8.5" fill="#B8C6D1"/>
<path d="M 132,108 Q 148,96 146,80" fill="none" stroke="#12A99A" stroke-width="12" stroke-linecap="round" stroke-linejoin="round"/>
<circle cx="146" cy="76" r="8.5" fill="#B8C6D1"/>
<path d="M 100,40 L 100,26" fill="none" stroke="#12A99A" stroke-width="5" stroke-linecap="round" stroke-linejoin="round"/>
<circle cx="100" cy="21" r="7" fill="#FFC93C"/>
<circle cx="98" cy="19" r="2.4" fill="#FDFAF4" fill-opacity="0.8"/>
<rect x="62" y="36" width="76" height="58" rx="20" fill="#12A99A"/>
<circle cx="60" cy="66" r="8" fill="#B8C6D1"/>
<circle cx="140" cy="66" r="8" fill="#B8C6D1"/>
<rect x="72" y="48" width="56" height="38" rx="14" fill="#241D15"/>
<path d="M 81,68 Q 88,58 95,68" fill="none" stroke="#FFC93C" stroke-width="5" stroke-linecap="round"/>
<path d="M 105,68 Q 112,58 119,68" fill="none" stroke="#FFC93C" stroke-width="5" stroke-linecap="round"/>
<path d="M 92,76 Q 100,82 108,76" fill="none" stroke="#FFC93C" stroke-width="3.5" stroke-linecap="round"/>
<path d="M 78,44 Q 100,38 122,44" fill="none" stroke="#2FAE7C" stroke-width="3" stroke-linecap="round" stroke-opacity="0.55"/>
</svg>
