<svg xmlns="http://www.w3.org/2000/svg" viewBox="0 0 200 200" width="200" height="200"><path d="M34 31 L37.64 40.36 L47 44 L37.64 47.64 L34 57 L30.36 47.64 L21 44 L30.36 40.36 Z" fill="#FFC93C" opacity="1"/><path d="M96 19 L98.52 25.48 L105 28 L98.52 30.52 L96 37 L93.48 30.52 L87 28 L93.48 25.48 Z" fill="#FFC93C" opacity="1"/><path d="M158 38 L161.92 48.08 L172 52 L161.92 55.92 L158 66 L154.08 55.92 L144 52 L154.08 48.08 Z" fill="#FFC93C" opacity="1"/><path d="M66 102 L68.24 107.76 L74 110 L68.24 112.24 L66 118 L63.76 112.24 L58 110 L63.76 107.76 Z" fill="#FFC93C" opacity="1"/><path d="M140 109 L143.08 116.92 L151 120 L143.08 123.08 L140 131 L136.92 123.08 L129 120 L136.92 116.92 Z" fill="#FFC93C" opacity="1"/><path d="M40 150 L42.8 157.2 L50 160 L42.8 162.8 L40 170 L37.2 162.8 L30 160 L37.2 157.2 Z" fill="#FFC93C" opacity="1"/><path d="M112 160 L114.24 165.76 L120 168 L114.24 170.24 L112 176 L109.76 170.24 L104 168 L109.76 165.76 Z" fill="#FFC93C" opacity="1"/><path d="M176 133 L177.96 138.04 L183 140 L177.96 141.96 L176 147 L174.04 141.96 L169 140 L174.04 138.04 Z" fill="#FFC93C" opacity="1"/></svg>