<svg xmlns="http://www.w3.org/2000/svg" viewBox="0 0 800 500" preserveAspectRatio="xMidYMid slice" width="800" height="500">
<defs><linearGradient id="bg_jungle_island_g1" x1="0" y1="0" x2="0" y2="1"><stop offset="0" stop-color="#7FBDEE"/><stop offset="0.62" stop-color="#CFE8FA"/><stop offset="1" stop-color="#8FDCC0"/></linearGradient><linearGradient id="bg_jungle_island_g2" x1="0" y1="0" x2="0" y2="1"><stop offset="0" stop-color="#5CC79A"/><stop offset="1" stop-color="#27946A"/></linearGradient></defs>
<rect x="0" y="0" width="800" height="360" fill="url(#bg_jungle_island_g1)"/>
<ellipse cx="196" cy="96" rx="70" ry="26" fill="#FDFAF4" fill-opacity="0.55"/>
<ellipse cx="470" cy="66" rx="86" ry="24" fill="#FDFAF4" fill-opacity="0.45"/>
<path d="M 452,348 L 592,138 C 606,120 634,120 648,138 L 792,348 Z" fill="#1C7050"/>
<path d="M 452,348 L 592,138 C 600,127 610,122 620,121 L 620,348 Z" fill="#12A99A" fill-opacity="0.35"/>
<path d="M 586,146 C 600,158 640,158 654,146 C 646,132 594,132 586,146 Z" fill="#241D15" fill-opacity="0.35"/>
<path d="M 594,140 C 604,126 616,132 620,120 C 626,132 638,124 646,140 C 632,150 606,150 594,140 Z" fill="#F4A340" fill-opacity="0.8"/>
<path d="M 0,352 C 80,320 160,336 240,346 C 320,356 400,338 470,348 L 470,368 L 0,368 Z" fill="#12A99A" fill-opacity="0.45"/>
<path d="M 0,346 C 150,336 320,356 480,348 C 620,341 710,356 800,348 L 800,500 L 0,500 Z" fill="url(#bg_jungle_island_g2)"/>
<path d="M 0,346 C 150,336 320,356 480,348 C 620,341 710,356 800,348" fill="none" stroke="#5CC79A" stroke-width="8" stroke-opacity="0.7"/>
<ellipse cx="80" cy="466" rx="170" ry="44" fill="#27946A" fill-opacity="0.35"/>
<ellipse cx="736" cy="478" rx="170" ry="44" fill="#27946A" fill-opacity="0.35"/>
<g>
<path d="M 30,470 Q 117,365 99,230" fill="none" stroke="#1C7050" stroke-width="16" stroke-linecap="round"/><ellipse cx="73" cy="404" rx="46" ry="24" fill="#1C7050" transform="rotate(-4 73 404)"/><ellipse cx="73" cy="404" rx="46" ry="24" fill="#1C7050" transform="rotate(-144 73 404)"/><ellipse cx="91" cy="357" rx="41" ry="21" fill="#1C7050" transform="rotate(-4 91 357)"/><ellipse cx="91" cy="357" rx="41" ry="21" fill="#1C7050" transform="rotate(-144 91 357)"/><ellipse cx="100" cy="308" rx="37" ry="19" fill="#1C7050" transform="rotate(-4 100 308)"/><ellipse cx="100" cy="308" rx="37" ry="19" fill="#1C7050" transform="rotate(-144 100 308)"/><ellipse cx="102" cy="262" rx="33" ry="17" fill="#1C7050" transform="rotate(-4 102 262)"/><ellipse cx="102" cy="262" rx="33" ry="17" fill="#1C7050" transform="rotate(-144 102 262)"/>
<path d="M -6,452 Q 100,395 129,279" fill="none" stroke="#2FAE7C" stroke-width="16" stroke-linecap="round"/><ellipse cx="51" cy="413" rx="40" ry="21" fill="#2FAE7C" transform="rotate(18 51 413)"/><ellipse cx="51" cy="413" rx="40" ry="21" fill="#2FAE7C" transform="rotate(-122 51 413)"/><ellipse cx="81" cy="380" rx="36" ry="19" fill="#2FAE7C" transform="rotate(18 81 380)"/><ellipse cx="81" cy="380" rx="36" ry="19" fill="#2FAE7C" transform="rotate(-122 81 380)"/><ellipse cx="105" cy="343" rx="32" ry="17" fill="#2FAE7C" transform="rotate(18 105 343)"/><ellipse cx="105" cy="343" rx="32" ry="17" fill="#2FAE7C" transform="rotate(-122 105 343)"/><ellipse cx="121" cy="306" rx="29" ry="15" fill="#2FAE7C" transform="rotate(18 121 306)"/><ellipse cx="121" cy="306" rx="29" ry="15" fill="#2FAE7C" transform="rotate(-122 121 306)"/>
<path d="M 66,484 Q 9,384 44,275" fill="none" stroke="#12A99A" stroke-width="14" stroke-linecap="round"/><ellipse cx="40" cy="423" rx="38" ry="20" fill="#12A99A" transform="rotate(-166 40 423)"/><ellipse cx="40" cy="423" rx="38" ry="20" fill="#12A99A" transform="rotate(-26 40 423)"/><ellipse cx="32" cy="382" rx="35" ry="18" fill="#12A99A" transform="rotate(-166 32 382)"/><ellipse cx="32" cy="382" rx="35" ry="18" fill="#12A99A" transform="rotate(-26 32 382)"/><ellipse cx="31" cy="340" rx="31" ry="16" fill="#12A99A" transform="rotate(-166 31 340)"/><ellipse cx="31" cy="340" rx="31" ry="16" fill="#12A99A" transform="rotate(-26 31 340)"/><ellipse cx="37" cy="301" rx="27" ry="14" fill="#12A99A" transform="rotate(-166 37 301)"/><ellipse cx="37" cy="301" rx="27" ry="14" fill="#12A99A" transform="rotate(-26 37 301)"/>
<path d="M 120,496 Q 189,434 189,341" fill="none" stroke="#2FAE7C" stroke-width="12" stroke-linecap="round"/><ellipse cx="155" cy="456" rx="31" ry="16" fill="#2FAE7C" transform="rotate(4 155 456)"/><ellipse cx="155" cy="456" rx="31" ry="16" fill="#2FAE7C" transform="rotate(-136 155 456)"/><ellipse cx="172" cy="426" rx="28" ry="15" fill="#2FAE7C" transform="rotate(4 172 426)"/><ellipse cx="172" cy="426" rx="28" ry="15" fill="#2FAE7C" transform="rotate(-136 172 426)"/><ellipse cx="183" cy="394" rx="25" ry="13" fill="#2FAE7C" transform="rotate(4 183 394)"/><ellipse cx="183" cy="394" rx="25" ry="13" fill="#2FAE7C" transform="rotate(-136 183 394)"/><ellipse cx="188" cy="363" rx="22" ry="12" fill="#2FAE7C" transform="rotate(4 188 363)"/><ellipse cx="188" cy="363" rx="22" ry="12" fill="#2FAE7C" transform="rotate(-136 188 363)"/>
</g>
<g>
<path d="M 772,466 Q 685,361 703,226" fill="none" stroke="#1C7050" stroke-width="16" stroke-linecap="round"/><ellipse cx="729" cy="400" rx="46" ry="24" fill="#1C7050" transform="rotate(-176 729 400)"/><ellipse cx="729" cy="400" rx="46" ry="24" fill="#1C7050" transform="rotate(-36 729 400)"/><ellipse cx="711" cy="353" rx="41" ry="21" fill="#1C7050" transform="rotate(-176 711 353)"/><ellipse cx="711" cy="353" rx="41" ry="21" fill="#1C7050" transform="rotate(-36 711 353)"/><ellipse cx="702" cy="304" rx="37" ry="19" fill="#1C7050" transform="rotate(-176 702 304)"/><ellipse cx="702" cy="304" rx="37" ry="19" fill="#1C7050" transform="rotate(-36 702 304)"/><ellipse cx="700" cy="258" rx="33" ry="17" fill="#1C7050" transform="rotate(-176 700 258)"/><ellipse cx="700" cy="258" rx="33" ry="17" fill="#1C7050" transform="rotate(-36 700 258)"/>
<path d="M 806,450 Q 700,393 671,277" fill="none" stroke="#2FAE7C" stroke-width="16" stroke-linecap="round"/><ellipse cx="749" cy="411" rx="40" ry="21" fill="#2FAE7C" transform="rotate(-198 749 411)"/><ellipse cx="749" cy="411" rx="40" ry="21" fill="#2FAE7C" transform="rotate(-58 749 411)"/><ellipse cx="719" cy="378" rx="36" ry="19" fill="#2FAE7C" transform="rotate(-198 719 378)"/><ellipse cx="719" cy="378" rx="36" ry="19" fill="#2FAE7C" transform="rotate(-58 719 378)"/><ellipse cx="695" cy="341" rx="32" ry="17" fill="#2FAE7C" transform="rotate(-198 695 341)"/><ellipse cx="695" cy="341" rx="32" ry="17" fill="#2FAE7C" transform="rotate(-58 695 341)"/><ellipse cx="679" cy="304" rx="29" ry="15" fill="#2FAE7C" transform="rotate(-198 679 304)"/><ellipse cx="679" cy="304" rx="29" ry="15" fill="#2FAE7C" transform="rotate(-58 679 304)"/>
<path d="M 710,486 Q 766,389 731,282" fill="none" stroke="#12A99A" stroke-width="14" stroke-linecap="round"/><ellipse cx="735" cy="427" rx="38" ry="20" fill="#12A99A" transform="rotate(-14 735 427)"/><ellipse cx="735" cy="427" rx="38" ry="20" fill="#12A99A" transform="rotate(-154 735 427)"/><ellipse cx="743" cy="386" rx="34" ry="18" fill="#12A99A" transform="rotate(-14 743 386)"/><ellipse cx="743" cy="386" rx="34" ry="18" fill="#12A99A" transform="rotate(-154 743 386)"/><ellipse cx="744" cy="345" rx="30" ry="16" fill="#12A99A" transform="rotate(-14 744 345)"/><ellipse cx="744" cy="345" rx="30" ry="16" fill="#12A99A" transform="rotate(-154 744 345)"/><ellipse cx="738" cy="308" rx="27" ry="14" fill="#12A99A" transform="rotate(-14 738 308)"/><ellipse cx="738" cy="308" rx="27" ry="14" fill="#12A99A" transform="rotate(-154 738 308)"/>
<path d="M 664,496 Q 598,432 601,340" fill="none" stroke="#2FAE7C" stroke-width="12" stroke-linecap="round"/><ellipse cx="631" cy="455" rx="31" ry="16" fill="#2FAE7C" transform="rotate(-182 631 455)"/><ellipse cx="631" cy="455" rx="31" ry="16" fill="#2FAE7C" transform="rotate(-42 631 455)"/><ellipse cx="615" cy="425" rx="28" ry="14" fill="#2FAE7C" transform="rotate(-182 615 425)"/><ellipse cx="615" cy="425" rx="28" ry="14" fill="#2FAE7C" transform="rotate(-42 615 425)"/><ellipse cx="606" cy="393" rx="25" ry="13" fill="#2FAE7C" transform="rotate(-182 606 393)"/><ellipse cx="606" cy="393" rx="25" ry="13" fill="#2FAE7C" transform="rotate(-42 606 393)"/><ellipse cx="601" cy="362" rx="22" ry="11" fill="#2FAE7C" transform="rotate(-182 601 362)"/><ellipse cx="601" cy="362" rx="22" ry="11" fill="#2FAE7C" transform="rotate(-42 601 362)"/>
</g>
<path d="M 180,500 C 172,474 178,462 182,452 M 196,500 C 192,478 198,466 202,458" fill="none" stroke="#1C7050" stroke-width="6" stroke-linecap="round" stroke-opacity="0.45"/>
<path d="M 214,500 C 206,474 212,462 216,452 M 230,500 C 226,478 232,466 236,458" fill="none" stroke="#1C7050" stroke-width="6" stroke-linecap="round" stroke-opacity="0.45"/>
<path d="M 600,500 C 592,474 598,462 602,452 M 616,500 C 612,478 618,466 622,458" fill="none" stroke="#1C7050" stroke-width="6" stroke-linecap="round" stroke-opacity="0.45"/>
<path d="M 640,500 C 632,474 638,462 642,452 M 656,500 C 652,478 658,466 662,458" fill="none" stroke="#1C7050" stroke-width="6" stroke-linecap="round" stroke-opacity="0.45"/>
<path d="M 676,500 C 668,474 674,462 678,452 M 692,500 C 688,478 694,466 698,458" fill="none" stroke="#1C7050" stroke-width="6" stroke-linecap="round" stroke-opacity="0.45"/>
</svg>
